<?xml version="1.0" standalone="no"?>
<!DOCTYPE svg PUBLIC "-//W3C//DTD SVG 20010904//EN"
 "http://www.w3.org/TR/2001/REC-SVG-20010904/DTD/svg10.dtd">
<svg version="1.0" xmlns="http://www.w3.org/2000/svg"
 width="1113.000000pt" height="1413.000000pt" viewBox="0 0 1113.000000 1413.000000"
 preserveAspectRatio="xMidYMid meet">

<style>
  .logo-dinamica {
    fill: #1a1a1a;
  }
  @media (prefers-color-scheme: dark) {
    .logo-dinamica {
      fill: #ffffff;
    }
  }
</style>

<g class="logo-dinamica" transform="translate(0.000000,1413.000000) scale(0.100000,-0.100000)"
 stroke="none">
<path d="M5560 13118 c-24 -35 -108 -152 -187 -261 -216 -297 -221 -306 -244
-472 -25 -186 42 -496 129 -589 29 -31 266 -232 295 -250 15 -10 17 -34 17
-278 l0 -268 -203 0 -202 0 -173 173 -172 172 0 561 c0 486 2 563 15 574 22
18 38 83 31 124 -20 106 -155 151 -234 77 -44 -40 -58 -102 -37 -157 9 -24 30
-53 46 -65 l29 -20 0 -582 0 -582 212 -212 212 -213 243 0 243 0 0 -390 c0
-214 -4 -390 -8 -390 -4 0 -43 44 -87 98 -110 135 -398 483 -812 980 l-353
423 0 160 c0 145 2 164 20 189 61 86 10 190 -93 190 -86 0 -151 -131 -91 -181
11 -9 14 -53 14 -215 l0 -204 197 -238 c108 -130 352 -424 543 -652 454 -546
530 -638 530 -645 0 -3 -197 -5 -438 -5 -327 0 -441 3 -450 12 -9 9 -12 121
-12 444 l0 432 -172 209 c-233 282 -654 790 -738 888 l-68 81 -77 3 c-71 2
-81 5 -104 30 -49 53 -116 53 -167 0 -25 -27 -29 -38 -29 -90 0 -57 2 -63 37
-95 45 -40 96 -45 143 -14 19 13 47 20 76 20 l45 0 112 -135 c62 -74 112 -138
112 -141 0 -3 -198 -4 -439 -3 -491 3 -478 4 -501 -66 -28 -85 22 -155 112
-155 42 0 54 5 81 31 l31 32 426 4 425 5 71 -89 c40 -48 162 -198 273 -333
l201 -245 0 -343 c0 -189 -4 -342 -8 -340 -8 3 -88 92 -283 313 -58 66 -143
163 -189 215 -46 52 -159 182 -252 288 l-170 192 -210 0 -209 0 -25 30 c-37
44 -91 57 -139 34 -56 -26 -77 -66 -72 -137 3 -49 8 -63 35 -90 28 -27 40 -32
81 -32 35 0 58 6 80 23 29 21 39 22 204 22 l174 0 81 -92 81 -93 -256 -257
-256 -256 -166 -1 c-146 -1 -170 1 -202 18 -65 35 -108 31 -157 -13 -34 -32
-37 -39 -37 -89 0 -68 25 -106 80 -125 46 -15 91 -3 125 33 23 25 24 25 224
25 l201 0 270 270 c149 149 275 269 281 268 6 -2 87 -88 179 -193 92 -104 241
-271 330 -370 135 -151 163 -187 168 -220 4 -21 17 -50 31 -63 31 -32 105 -41
140 -18 23 14 82 16 546 16 l520 0 2 -472 c1 -260 2 -524 3 -585 0 -62 -3
-113 -6 -113 -3 0 -32 31 -65 68 -54 63 -240 269 -699 777 -95 105 -180 197
-190 205 -15 12 -101 14 -582 13 l-566 -1 -72 -72 -72 -71 -172 163 -173 163
-61 7 c-34 4 -115 7 -179 6 -118 0 -118 0 -153 30 -46 41 -93 49 -142 26 -51
-26 -83 -75 -83 -131 0 -91 55 -153 135 -153 42 0 102 29 111 55 5 12 32 15
154 15 l147 0 154 -149 154 -149 -111 -113 c-148 -152 -154 -157 -194 -183
-23 -14 -40 -35 -49 -62 -12 -36 -12 -44 4 -77 43 -92 163 -89 211 5 9 17 13
39 11 50 -5 16 39 66 193 227 109 113 208 218 220 234 l21 27 507 0 507 0 156
-173 c86 -94 262 -289 391 -432 129 -143 294 -325 366 -405 l132 -145 0 -247
c0 -137 -2 -248 -4 -248 -4 0 -658 731 -766 855 -25 29 -132 150 -239 270
l-195 217 3 48 c2 39 -2 53 -25 80 -91 107 -274 60 -274 -70 0 -68 52 -124
127 -138 38 -7 71 -41 569 -601 291 -327 591 -664 667 -749 l137 -155 0 -143
0 -144 -217 0 c-176 1 -222 3 -237 15 -11 8 -39 15 -63 15 -56 0 -103 -39
-112 -94 l-6 -39 -220 259 c-120 143 -251 297 -291 344 -40 47 -130 153 -200
235 -69 83 -188 222 -264 310 -75 88 -178 207 -227 266 -68 79 -96 105 -114
105 -13 0 -259 1 -546 2 l-523 2 -210 280 c-182 243 -210 285 -210 316 0 20
-8 49 -17 65 -22 37 -88 70 -125 62 -63 -12 -108 -94 -94 -169 9 -45 64 -104
97 -104 19 -1 49 -34 144 -163 65 -89 167 -226 225 -304 l105 -143 493 0 c270
0 492 -3 492 -7 0 -3 -71 -150 -157 -325 l-156 -318 -327 0 c-299 0 -328 1
-342 18 -8 9 -90 133 -181 275 -160 247 -167 260 -167 309 0 44 -4 54 -34 84
-46 46 -101 48 -148 5 -31 -28 -33 -33 -33 -96 0 -72 -6 -62 78 -133 5 -4 98
-143 208 -309 l199 -303 420 0 421 0 185 376 c102 206 190 374 194 372 8 -3
435 -498 650 -753 37 -44 95 -113 129 -152 l61 -73 -72 -1 c-191 -1 -802 1
-804 4 -1 1 -3 29 -5 62 -2 47 3 68 19 95 28 45 28 89 -1 131 -38 58 -122 65
-172 15 -36 -36 -43 -91 -16 -140 18 -35 21 -57 21 -162 0 -181 -58 -163 540
-164 271 0 494 -1 495 -3 2 -2 -234 -434 -302 -552 l-28 -50 -167 -3 -167 -2
-113 127 c-62 70 -151 171 -198 224 -47 53 -166 187 -264 298 l-180 201 -389
0 c-374 0 -390 1 -414 20 -60 47 -161 11 -182 -67 -12 -43 9 -104 44 -127 35
-23 107 -20 138 4 24 19 40 20 379 20 l353 0 85 -96 c47 -53 86 -99 88 -104 4
-10 -790 -21 -803 -11 -42 33 -122 12 -155 -41 -25 -42 -25 -74 0 -116 40 -65
140 -71 190 -12 14 16 52 18 460 24 l445 6 75 -86 c41 -48 108 -123 147 -168
40 -44 73 -84 73 -88 0 -5 -107 -8 -237 -8 l-238 0 -230 -180 c-210 -164 -233
-179 -261 -174 -65 12 -134 -50 -134 -120 0 -53 17 -85 60 -114 58 -39 138
-14 166 53 10 25 70 77 234 204 l220 171 531 2 531 3 174 315 c96 173 185 334
196 358 12 23 24 42 27 41 6 0 264 -297 268 -308 2 -3 -108 -127 -244 -276
-135 -148 -301 -331 -369 -407 -70 -77 -140 -144 -161 -155 -96 -49 -95 -198
2 -239 101 -42 193 27 183 137 l-5 49 342 372 c333 363 372 405 378 397 2 -2
91 -103 198 -224 154 -174 308 -350 335 -384 2 -2 10 2 19 9 13 11 15 -107 15
-1124 0 -1224 2 -1183 -51 -1217 -57 -37 -93 -40 -724 -60 l-630 -20 -77 -46
c-43 -24 -78 -47 -78 -49 0 -6 2591 -2 3273 5 l547 6 -81 59 -81 58 -631 -7
-632 -8 -52 26 c-28 15 -100 38 -160 53 -144 36 -176 53 -203 108 -31 65 -38
134 -55 529 -8 194 -21 415 -29 492 -22 215 -29 483 -17 635 17 207 38 278
138 467 47 90 97 175 112 189 39 40 82 54 163 54 73 0 261 20 393 41 65 10 81
9 209 -20 77 -17 140 -32 141 -33 1 -2 12 -37 25 -78 30 -102 53 -144 107
-197 110 -106 295 -146 441 -95 108 38 300 82 464 105 87 12 158 25 158 30 0
4 -33 60 -73 125 -41 64 -106 173 -146 242 -40 69 -87 137 -104 153 -84 72
-198 117 -343 135 -51 7 -64 11 -49 17 11 5 130 55 264 112 l244 103 81 -52
c45 -29 107 -71 139 -94 51 -37 69 -44 144 -54 204 -29 307 21 435 214 75 112
141 195 281 354 60 68 108 125 106 127 -2 1 -122 44 -266 94 -238 82 -270 91
-335 91 -89 0 -161 -18 -253 -64 -82 -41 -193 -130 -223 -178 -11 -18 -30 -82
-42 -143 -13 -60 -27 -120 -32 -133 -8 -24 -20 -30 -298 -157 -161 -74 -339
-163 -465 -232 -111 -62 -335 -195 -377 -225 -27 -18 -32 -19 -140 -4 -62 9
-150 19 -195 22 l-82 7 62 40 c34 21 85 60 112 86 108 101 105 100 260 107
157 7 204 22 323 103 102 69 173 209 191 376 7 55 17 102 23 106 6 4 75 29
152 55 177 59 184 63 337 172 70 50 153 102 185 116 33 14 113 49 178 79 l119
54 100 -44 c55 -24 119 -54 141 -65 37 -19 52 -20 154 -14 62 3 128 12 146 20
38 16 127 102 162 157 13 21 35 69 49 106 30 81 119 241 226 410 l77 121 -137
26 c-439 83 -458 84 -572 40 -70 -27 -203 -119 -254 -176 -84 -93 -93 -116
-104 -272 -6 -76 -12 -140 -13 -141 -11 -8 -171 -102 -258 -152 -145 -82 -670
-346 -670 -336 0 4 20 88 44 186 23 97 40 177 37 177 -28 0 -554 -167 -587
-186 -52 -30 -158 -141 -212 -222 l-41 -59 -62 -7 c-153 -16 -175 -12 -302 57
-64 34 -117 64 -116 67 0 3 52 46 114 95 113 89 116 90 182 96 38 4 107 7 155
8 80 1 93 4 162 40 99 51 147 90 186 151 57 89 89 179 100 286 16 146 116 543
143 570 7 6 49 25 94 42 71 27 105 33 240 42 174 13 208 23 340 109 57 37 66
48 106 128 58 116 73 167 86 298 7 70 32 193 70 340 33 126 58 231 57 232 -1
2 -90 -24 -196 -57 -107 -32 -196 -57 -198 -56 -3 4 108 142 195 243 l54 61
108 4 c104 3 111 5 194 46 103 51 151 101 207 216 32 65 42 103 55 195 9 62
34 177 56 255 21 77 49 180 63 229 13 48 20 87 15 87 -37 0 -528 -134 -571
-156 -106 -54 -271 -243 -325 -373 -29 -72 -29 -105 2 -248 14 -65 29 -133 32
-151 5 -29 -5 -49 -92 -180 -132 -198 -207 -295 -283 -366 -60 -56 -156 -184
-214 -286 -62 -106 -153 -169 -488 -334 -253 -125 -276 -133 -341 -117 -25 6
-24 7 33 60 l59 54 141 24 c151 25 158 28 289 109 100 62 129 93 216 226 57
88 66 110 107 260 44 157 61 203 183 496 30 73 53 135 51 137 -1 2 -57 -18
-123 -44 -66 -26 -209 -83 -318 -125 -248 -98 -312 -143 -454 -323 -35 -46
-67 -83 -69 -83 -6 0 -10 -6 117 190 265 411 309 473 372 528 34 31 91 84 127
118 36 35 78 66 95 70 89 21 188 96 238 182 l33 57 155 2 c172 2 201 9 324 78
48 27 74 49 96 83 66 105 89 166 113 297 20 108 50 216 151 546 7 21 -35 14
-335 -51 -218 -48 -227 -51 -293 -96 -37 -26 -94 -75 -125 -109 -63 -69 -131
-111 -336 -210 -115 -56 -142 -73 -187 -123 -60 -65 -127 -199 -155 -307 -16
-65 -21 -72 -61 -97 -49 -31 -50 -30 -23 72 11 41 20 76 20 78 0 1 -27 -11
-60 -28 -33 -16 -63 -30 -67 -30 -4 0 11 19 34 43 22 23 60 78 83 122 76 142
141 255 148 256 4 0 59 4 123 8 123 8 171 24 287 94 94 57 172 201 197 367 15
96 86 362 134 503 l20 58 -37 -7 c-64 -11 -401 -83 -465 -100 -72 -18 -128
-48 -194 -106 -114 -98 -225 -276 -238 -381 -8 -66 10 -219 36 -302 10 -33 19
-69 19 -80 0 -19 -153 -239 -284 -410 -35 -46 -85 -96 -116 -118 -123 -85
-650 -331 -650 -304 0 2 58 62 128 133 71 71 184 199 251 284 l123 155 120 47
c136 53 163 74 252 198 66 92 81 129 95 246 16 129 14 206 -9 330 -25 134 -56
399 -66 557 -4 64 -10 117 -13 117 -15 0 -536 -414 -563 -448 -49 -60 -105
-188 -139 -317 -27 -101 -32 -139 -33 -240 -1 -118 0 -121 33 -185 39 -76 76
-131 138 -207 l44 -54 -27 -37 c-15 -20 -81 -106 -147 -190 -119 -152 -120
-153 -227 -216 -59 -35 -127 -74 -151 -86 -24 -12 -63 -38 -86 -56 -23 -19
-43 -34 -46 -34 -4 0 -13 186 -23 505 l-7 200 134 101 c149 113 177 146 247
292 l47 97 0 145 c-1 154 -22 304 -53 373 -18 39 -413 626 -423 627 -3 0 -25
-28 -49 -62z m1607 -2192 l31 -54 -115 -114 c-64 -62 -131 -135 -150 -163 -31
-45 -34 -47 -29 -20 3 17 8 57 11 90 4 33 13 100 22 149 l16 88 81 39 c44 21
86 39 91 39 6 0 25 -24 42 -54z m-922 -225 c-19 -29 -43 -75 -52 -103 -15 -43
-30 -59 -96 -112 -44 -33 -87 -68 -97 -76 -10 -8 -50 -95 -90 -193 -103 -258
-137 -324 -156 -305 -11 12 -43 340 -59 608 l-6 95 43 29 c24 17 68 47 98 68
l55 38 155 -20 154 -20 40 24 c23 13 42 23 44 22 1 -2 -13 -27 -33 -55z m-26
-476 c0 -15 -27 -37 -101 -85 -56 -36 -105 -66 -109 -68 -4 -2 2 22 13 52 16
43 37 71 96 128 l76 73 12 -40 c7 -22 13 -49 13 -60z m476 -31 c-77 -116 -168
-272 -215 -370 -106 -220 -224 -496 -272 -637 -48 -139 -53 -149 -97 -186
-128 -107 -201 -109 -241 -6 -21 53 -24 240 -6 340 21 112 76 298 128 432 44
115 62 136 208 254 l95 76 130 22 c142 25 190 44 256 101 24 21 46 36 48 34 2
-2 -13 -29 -34 -60z m-102 -782 c5 -43 3 -45 -80 -133 -73 -76 -113 -106 -113
-83 0 14 62 179 105 279 26 61 52 121 58 135 9 21 12 12 18 -65 5 -49 10 -109
12 -133z m857 -219 c0 -12 -214 -133 -322 -182 -35 -16 -121 -43 -193 -60
-144 -36 -140 -34 -452 -238 -189 -123 -219 -150 -357 -322 -52 -64 -101 -123
-111 -131 -50 -42 -64 -95 -99 -368 -8 -63 -16 -116 -19 -118 -11 -11 -60 116
-64 166 -15 164 106 474 304 780 92 142 94 144 222 243 l103 80 185 -11 184
-12 77 43 c42 24 140 77 217 118 107 57 156 89 210 141 l70 66 22 -91 c12 -51
22 -97 23 -104z m-1031 -754 c-6 -13 -14 -61 -16 -108 -4 -73 0 -104 25 -198
l30 -113 -151 -91 c-83 -50 -179 -116 -214 -146 l-63 -55 5 43 c8 68 25 237
25 247 0 17 360 455 368 448 2 -3 -2 -15 -9 -27z m-38 -935 c207 -99 225 -106
271 -102 l48 5 0 -46 c1 -25 16 -104 34 -174 l33 -129 -36 -22 c-20 -13 -85
-53 -146 -91 -60 -37 -139 -87 -174 -112 -59 -41 -66 -44 -89 -32 -43 24 -111
109 -152 193 -57 114 -84 249 -76 381 7 120 34 235 57 235 4 0 108 -48 230
-106z m-781 -624 l0 -331 -112 128 c-62 70 -187 210 -277 312 l-163 186 38 5
c22 3 48 11 59 18 14 8 90 11 238 12 l217 0 0 -330z"/>
<path d="M2303 11070 c-76 -46 -85 -161 -17 -222 31 -27 92 -39 140 -27 49 13
87 49 103 101 11 32 10 43 -8 82 -12 28 -33 53 -53 66 -44 26 -122 27 -165 0z"/>
<path d="M1954 10331 c-32 -20 -64 -74 -64 -110 0 -40 28 -90 62 -111 71 -43
160 -14 192 63 19 44 19 47 1 92 -30 79 -119 110 -191 66z"/>
<path d="M8983 10149 c-168 -47 -289 -87 -320 -104 -144 -85 -312 -319 -338
-471 -5 -30 3 -84 30 -205 21 -90 39 -168 41 -174 3 -7 -101 -41 -268 -89
-150 -43 -295 -90 -323 -104 -145 -78 -335 -356 -335 -490 0 -21 19 -110 41
-198 23 -87 44 -172 47 -187 2 -16 10 -30 16 -33 6 -2 88 0 182 4 l170 7 78
40 c112 57 158 106 216 228 43 91 50 114 60 212 7 61 32 189 57 285 25 96 50
194 55 218 l10 42 169 0 c184 0 203 4 310 67 79 45 122 93 173 193 45 89 52
115 80 302 9 59 42 200 72 313 30 114 54 210 52 214 -2 4 -125 -28 -275 -70z"/>
<path d="M3429 10135 c-31 -17 -59 -71 -59 -113 0 -37 37 -93 74 -111 65 -31
156 33 156 110 0 99 -89 158 -171 114z"/>
<path d="M2002 9888 c-85 -23 -97 -170 -17 -206 64 -29 134 -2 161 64 35 84
-50 169 -144 142z"/>
<path d="M4900 9752 c-47 -23 -83 -93 -75 -142 15 -79 59 -120 130 -120 55 0
94 25 117 76 33 75 7 153 -62 189 -38 20 -67 19 -110 -3z"/>
<path d="M2523 9566 c-60 -27 -82 -119 -43 -183 23 -38 52 -55 95 -55 67 0
115 54 115 130 0 84 -90 142 -167 108z"/>
<path d="M3696 9160 c-41 -13 -85 -58 -92 -96 -13 -71 39 -146 111 -160 29 -5
67 -43 272 -279 l238 -273 -3 -43 c-4 -54 22 -93 82 -120 53 -24 80 -24 133 2
50 24 73 61 73 117 0 62 -61 122 -123 122 -19 0 -75 58 -268 281 -237 273
-244 283 -249 331 -5 42 -12 56 -43 84 -20 19 -45 34 -56 34 -11 0 -25 2 -33
4 -7 2 -26 0 -42 -4z"/>
<path d="M3325 9151 c-41 -18 -60 -51 -60 -103 0 -43 4 -53 33 -79 57 -51 143
-33 177 37 14 30 15 43 6 74 -6 20 -20 45 -31 55 -22 20 -95 29 -125 16z"/>
<path d="M2709 8447 c-46 -31 -61 -63 -55 -117 7 -79 97 -134 186 -115 44 10
97 64 105 107 9 47 -16 101 -60 128 -46 29 -131 27 -176 -3z"/>
<path d="M4773 8275 c-38 -16 -63 -60 -63 -111 0 -28 8 -44 35 -71 33 -33 39
-35 82 -30 64 7 103 49 103 110 0 51 -21 84 -66 103 -41 17 -50 17 -91 -1z"/>
<path d="M4049 7345 c-58 -31 -78 -96 -50 -160 36 -81 132 -102 197 -42 31 28
37 41 42 85 4 50 3 53 -36 92 -34 35 -45 40 -83 40 -24 -1 -56 -7 -70 -15z"/>
<path d="M4934 6241 c-96 -44 -98 -187 -3 -237 46 -24 112 -14 150 22 74 71
51 187 -44 223 -39 15 -55 14 -103 -8z"/>
<path d="M450 2907 l0 -205 338 -234 c186 -128 348 -240 361 -248 22 -15 15
-21 -295 -235 -176 -120 -338 -232 -361 -249 l-43 -29 0 -179 c0 -98 4 -178 9
-178 12 0 386 252 1071 718 115 79 210 147 210 150 -1 6 -1175 821 -1262 877
l-28 17 0 -205z"/>
<path d="M1917 3103 c-4 -3 -7 -106 -7 -229 l0 -222 35 -6 c43 -8 55 -2 48 24
-3 11 -2 44 1 73 l7 54 70 10 c76 12 133 46 150 90 16 44 11 108 -14 144 -36
54 -77 69 -188 69 -53 0 -99 -3 -102 -7z m187 -74 c35 -16 52 -61 36 -98 -15
-38 -62 -58 -125 -53 -18 2 -20 11 -23 82 l-3 80 45 0 c25 0 56 -5 70 -11z"/>
<path d="M2290 2882 l0 -230 23 -6 c12 -3 75 -6 140 -6 l117 0 0 40 0 40 -100
0 -100 0 -2 193 -3 192 -37 3 -38 3 0 -229z"/>
<path d="M2743 3073 c-15 -37 -143 -400 -146 -417 -1 -5 16 -9 38 -10 39 -1
40 0 59 52 l19 52 81 0 82 0 17 -35 c9 -20 17 -42 17 -49 0 -17 22 -26 61 -26
19 0 29 5 29 14 0 16 -117 357 -144 419 -15 34 -20 37 -57 37 -37 0 -41 -3
-56 -37z m59 -241 c-30 -2 -56 -2 -58 0 -1 2 9 42 24 89 l27 86 31 -86 30 -86
-54 -3z"/>
<path d="M3030 3076 c0 -31 3 -34 38 -40 20 -3 49 -6 65 -6 l27 0 0 -189 0
-189 35 -6 c20 -4 40 -4 45 -1 6 4 10 82 10 196 l0 189 64 0 c36 0 67 3 69 8
3 4 2 22 0 40 l-5 32 -174 0 -174 0 0 -34z"/>
<path d="M3555 3078 c-20 -50 -145 -408 -145 -417 0 -13 62 -22 75 -11 7 6 18
31 25 55 l13 45 82 0 82 0 24 -52 c22 -49 27 -53 62 -56 26 -2 37 1 37 10 0
15 -119 362 -144 421 -15 34 -20 37 -57 37 -36 0 -41 -3 -54 -32z m84 -160
l30 -88 -60 0 c-52 0 -60 2 -55 16 3 9 16 49 29 89 12 40 23 73 23 72 1 -1 16
-41 33 -89z"/>
<path d="M3870 2881 l0 -229 30 -7 c16 -4 34 -4 40 0 5 3 10 44 10 91 l0 84
91 0 c90 0 91 0 85 23 -3 12 -6 27 -6 34 0 8 -26 13 -82 15 l-83 3 -3 68 -3
67 100 0 c55 0 102 3 104 8 3 4 2 22 0 40 l-5 32 -139 0 -139 0 0 -229z"/>
<path d="M4309 3087 c-67 -36 -103 -100 -108 -194 -4 -88 14 -143 62 -193 41
-42 84 -60 144 -60 126 1 213 100 213 241 0 172 -166 282 -311 206z m166 -74
c39 -30 58 -72 59 -132 0 -100 -49 -161 -131 -161 -76 0 -116 55 -117 162 -1
76 17 111 75 141 38 20 77 17 114 -10z"/>
<path d="M4697 3103 c-4 -3 -7 -106 -7 -229 0 -221 0 -222 23 -228 55 -15 57
-13 57 80 l0 85 38 -3 c35 -3 40 -8 86 -85 l48 -83 44 0 c24 0 44 3 44 7 0 4
-22 46 -50 94 l-50 86 35 37 c45 48 54 94 29 155 -28 68 -79 91 -199 91 -51 0
-95 -3 -98 -7z m197 -84 c53 -42 26 -121 -48 -134 -64 -12 -71 -4 -75 80 l-2
75 49 0 c35 0 57 -6 76 -21z"/>
<path d="M5110 3108 c0 -2 -11 -95 -25 -208 -32 -260 -32 -247 6 -255 17 -4
35 -3 39 1 10 10 25 106 35 218 l7 80 34 -87 c18 -47 38 -105 45 -127 10 -32
17 -40 36 -40 12 0 23 -5 23 -11 0 -18 33 -5 36 14 1 10 22 73 45 140 l44 122
13 -110 c25 -215 19 -194 57 -201 18 -3 38 -4 42 -1 10 6 -6 179 -31 346 -9
58 -16 108 -16 113 0 5 -19 8 -42 6 l-41 -3 -55 -148 c-31 -81 -57 -145 -59
-144 -2 2 -23 58 -47 123 -70 190 -60 174 -106 174 -22 0 -40 -1 -40 -2z"/>
<path d="M5722 3053 c-11 -32 -47 -135 -80 -229 l-60 -172 35 -5 c20 -4 40 -4
44 -2 4 3 15 28 24 55 l17 50 83 0 84 0 19 -52 c19 -51 21 -53 62 -56 49 -4
52 -27 -26 203 -97 284 -84 260 -136 263 l-46 3 -20 -58z m123 -213 c4 -6 -17
-10 -54 -10 -34 0 -61 3 -61 6 0 3 12 44 26 91 l27 85 28 -81 c15 -45 31 -86
34 -91z"/>
<path d="M1482 2920 c-134 -92 -246 -171 -250 -174 -3 -3 3 -13 14 -21 31 -24
228 -160 237 -164 5 -2 65 34 133 80 l123 84 1 183 c0 100 -3 182 -7 182 -5
-1 -117 -77 -251 -170z"/>
<path d="M4008 3013 c7 -3 16 -2 19 1 4 3 -2 6 -13 5 -11 0 -14 -3 -6 -6z"/>
<path d="M2170 2819 c0 -5 5 -7 10 -4 6 3 10 8 10 11 0 2 -4 4 -10 4 -5 0 -10
-5 -10 -11z"/>
<path d="M5706 2724 c-9 -23 -4 -24 17 -2 13 14 14 18 3 18 -8 0 -17 -7 -20
-16z"/>
<path d="M9441 2413 c-40 -21 -69 -71 -73 -126 -3 -37 -1 -39 37 -53 55 -19
75 -18 75 5 0 59 23 64 87 20 113 -78 218 -31 225 102 l3 54 -53 3 c-52 3 -52
3 -59 -28 -9 -46 -27 -47 -86 -7 -66 45 -111 54 -156 30z"/>
<path d="M558 2318 l-107 -73 -1 -188 c0 -148 3 -187 13 -181 87 51 477 323
477 332 -1 8 -248 175 -265 180 -5 1 -58 -30 -117 -70z"/>
<path d="M2064 2151 c-101 -26 -194 -107 -242 -209 -24 -50 -27 -69 -26 -152
1 -119 25 -188 94 -263 54 -60 112 -92 194 -109 80 -16 197 2 276 42 l62 31
-4 132 c-3 120 -5 135 -27 166 -13 18 -39 40 -57 47 -30 13 -40 12 -90 -6 -31
-11 -59 -22 -62 -25 -3 -2 8 -23 23 -45 16 -23 31 -61 35 -86 7 -43 5 -46 -19
-56 -14 -5 -49 -8 -77 -6 -95 8 -145 69 -145 178 -1 70 20 113 68 146 59 40
164 38 234 -3 16 -9 30 -15 33 -12 11 11 32 175 24 186 -27 35 -219 64 -294
44z"/>
<path d="M2540 1797 c0 -324 2 -366 16 -371 9 -3 132 -6 275 -6 l259 0 0 90 0
90 -175 0 -175 0 0 61 0 60 143 -2 142 -2 3 34 c2 19 1 58 -3 87 l-6 52 -140
0 -139 0 0 45 0 45 168 -3 167 -2 0 90 0 90 -267 3 -268 3 0 -364z"/>
<path d="M3435 2147 c-98 -33 -176 -101 -222 -195 -25 -51 -28 -67 -28 -162 0
-95 3 -111 29 -167 34 -74 112 -153 183 -185 70 -32 205 -31 288 1 75 30 150
104 191 186 26 54 29 70 29 160 0 93 -2 105 -32 166 -63 128 -176 200 -318
206 -48 2 -96 -3 -120 -10z m168 -198 c84 -43 125 -140 93 -223 -65 -169 -293
-140 -313 39 -9 76 31 154 91 181 38 16 100 18 129 3z"/>
<path d="M5117 2154 c-4 -4 -7 -168 -7 -364 l0 -357 31 -7 c17 -3 62 -6 100
-6 l69 0 -2 368 -3 367 -90 3 c-50 2 -93 0 -98 -4z"/>
<path d="M5445 2147 c-3 -6 -4 -172 -3 -367 l3 -355 97 -3 98 -3 2 199 3 200
136 -197 136 -196 92 -3 91 -3 -2 368 -3 368 -90 0 -90 0 -5 -204 -5 -203 -67
99 c-37 55 -101 147 -143 206 l-76 107 -85 0 c-59 0 -86 -4 -89 -13z"/>
<path d="M6458 2145 c-60 -20 -142 -82 -183 -140 -71 -99 -85 -263 -32 -378
34 -74 106 -150 176 -184 49 -25 68 -28 151 -28 84 0 103 3 157 29 113 52 201
170 217 292 9 62 -8 163 -36 218 -31 61 -112 140 -175 171 -71 35 -200 44
-275 20z m212 -215 c60 -43 86 -141 56 -213 -18 -43 -78 -95 -119 -102 -143
-27 -248 152 -163 277 48 70 155 88 226 38z"/>
<path d="M6996 2135 c13 -41 253 -675 264 -695 10 -19 19 -20 123 -18 l111 3
92 230 c108 269 126 334 122 430 l-3 70 -65 3 c-36 1 -83 -1 -105 -5 l-39 -9
3 -51 c3 -69 -33 -201 -111 -403 -9 -22 -19 2 -77 180 -37 113 -76 223 -87
245 l-19 40 -108 0 c-103 0 -107 0 -101 -20z"/>
<path d="M8025 2148 c-2 -7 -28 -76 -56 -153 -126 -347 -199 -558 -195 -563 3
-2 48 -7 99 -10 67 -3 96 -1 102 7 4 7 15 40 24 74 l18 62 124 0 124 0 20 -60
c11 -33 24 -66 28 -72 9 -15 207 -19 207 -4 0 10 -195 544 -237 651 l-30 75
-112 3 c-84 2 -113 -1 -116 -10z m156 -305 c16 -48 29 -90 29 -95 0 -4 -32 -8
-71 -8 -64 0 -70 2 -64 18 4 9 19 58 33 109 30 104 29 105 73 -24z"/>
<path d="M8833 2146 c-100 -33 -178 -100 -224 -191 -21 -44 -24 -63 -24 -165
0 -106 2 -120 28 -172 15 -31 45 -74 67 -97 39 -40 145 -101 175 -101 10 0 15
-9 15 -26 0 -24 -3 -26 -32 -21 -18 3 -43 8 -55 12 -22 7 -23 7 -39 -87 -6
-37 -5 -38 37 -58 51 -23 151 -26 187 -6 38 20 62 66 62 117 0 25 -5 50 -12
57 -9 9 -7 12 10 12 13 0 50 14 83 30 51 26 59 34 54 51 -13 39 -67 149 -73
149 -4 0 -15 -7 -25 -15 -34 -25 -110 -38 -155 -25 -44 11 -96 49 -114 83 -47
88 -15 212 65 254 45 23 132 21 191 -5 27 -12 52 -22 56 -22 8 0 30 115 30
159 0 29 -5 34 -47 53 -60 27 -199 34 -260 14z"/>
<path d="M9407 1983 c-122 -328 -197 -544 -193 -552 3 -4 49 -8 103 -7 l98 1
23 73 24 72 121 0 122 0 25 -72 25 -73 103 -3 c70 -2 102 1 102 9 0 16 -217
611 -247 675 l-24 54 -108 0 -108 0 -66 -177z m211 -125 c18 -57 32 -106 32
-110 0 -5 -32 -8 -71 -8 -64 0 -70 2 -64 18 4 9 19 59 34 110 14 50 28 92 31
92 3 0 20 -46 38 -102z"/>
<path d="M10271 2146 c-105 -35 -205 -136 -236 -241 -30 -99 -13 -242 39 -324
33 -52 110 -119 164 -144 39 -18 65 -22 147 -22 88 1 107 4 156 28 66 32 152
118 179 180 44 99 42 237 -5 333 -32 65 -109 138 -183 172 -70 32 -192 40
-261 18z m183 -200 c101 -42 128 -190 50 -276 -111 -123 -296 -34 -282 135 10
119 122 187 232 141z"/>
<path d="M4398 1967 c-101 -52 -148 -136 -148 -268 0 -92 24 -154 80 -210 72
-72 156 -92 285 -68 58 10 135 43 135 56 0 21 -65 143 -74 139 -52 -22 -123
-37 -152 -31 -33 6 -81 41 -71 51 2 3 45 11 95 18 122 18 179 46 203 100 23
52 23 81 0 131 -37 81 -101 115 -215 115 -64 0 -83 -4 -138 -33z m163 -117
c10 -6 19 -21 19 -35 0 -18 -9 -27 -43 -40 -24 -9 -58 -15 -76 -13 l-31 3 18
34 c27 51 73 72 113 51z"/>
<path d="M1155 1678 c-22 -16 -165 -115 -317 -220 l-277 -190 27 -22 c15 -13
73 -56 130 -96 l103 -73 -48 -33 c-26 -19 -109 -76 -183 -127 l-135 -94 -3
-186 c-1 -103 1 -187 4 -187 13 0 336 220 954 649 69 48 169 117 222 154 53
37 99 71 102 76 3 4 -38 38 -92 74 -53 36 -176 119 -272 185 l-176 120 -39
-30z"/>
<path d="M3272 654 c-40 -108 -70 -200 -66 -205 3 -5 18 -9 34 -9 24 0 31 6
44 43 58 158 126 351 126 358 0 5 -15 9 -33 9 l-33 0 -72 -196z"/>
<path d="M1905 823 c-6 -5 -9 -65 -7 -155 l3 -148 77 0 c125 0 181 42 190 143
5 64 -12 105 -60 138 -25 18 -48 24 -112 26 -45 2 -85 0 -91 -4z m168 -82 c15
-14 20 -33 20 -67 0 -39 -4 -51 -27 -71 -17 -14 -40 -23 -62 -23 l-34 0 0 96
0 97 41 -6 c23 -3 51 -15 62 -26z"/>
<path d="M2210 675 l0 -155 35 0 35 0 0 155 0 155 -35 0 -35 0 0 -155z"/>
<path d="M2327 823 c-4 -3 -7 -73 -7 -155 l0 -148 40 0 40 0 0 55 c0 76 25 76
65 0 28 -52 32 -55 68 -55 20 0 37 4 37 10 0 5 -14 32 -30 60 l-30 52 25 30
c44 52 30 119 -30 144 -35 14 -166 20 -178 7z m153 -73 c16 -30 -3 -57 -45
-62 l-35 -4 0 43 c0 42 0 43 35 43 24 0 37 -6 45 -20z"/>
<path d="M2691 813 c-13 -26 -101 -271 -101 -283 0 -5 15 -10 34 -10 30 0 36
4 46 35 11 34 13 35 65 35 52 0 54 -1 65 -35 11 -32 15 -35 50 -35 l39 0 -36
98 c-19 53 -44 123 -55 155 -20 56 -20 57 -59 57 -26 0 -41 -5 -48 -17z m64
-116 l13 -45 -31 -5 c-18 -2 -33 -4 -34 -3 -1 1 5 25 14 54 9 28 18 50 21 48
2 -2 9 -24 17 -49z"/>
<path d="M2982 810 c-46 -29 -76 -99 -68 -158 13 -94 66 -135 167 -130 87 5
99 15 99 88 0 75 -30 105 -84 84 -20 -8 -20 -28 0 -44 8 -8 14 -25 12 -39 -2
-21 -9 -27 -35 -29 -49 -5 -83 33 -83 93 0 63 35 100 88 92 20 -3 44 -8 53
-12 12 -4 18 1 23 21 10 38 -5 48 -77 52 -50 2 -69 -1 -95 -18z"/>
<path d="M3505 812 c-65 -41 -90 -100 -74 -173 12 -50 28 -76 66 -100 36 -24
131 -25 175 -3 30 16 31 17 25 77 -4 42 -11 65 -23 74 -21 15 -53 17 -74 3
-12 -8 -12 -11 3 -28 9 -10 17 -33 17 -50 0 -29 -3 -32 -31 -32 -20 0 -40 10
-60 29 -41 41 -40 91 1 133 31 31 59 34 112 13 13 -5 20 0 28 21 15 38 2 47
-73 52 -48 2 -69 -1 -92 -16z"/>
<path d="M3737 823 c-4 -3 -7 -73 -7 -155 l0 -148 115 0 115 0 0 30 0 30 -74
0 -74 0 -4 30 c-3 17 -2 32 0 35 3 3 34 5 69 5 l63 0 0 30 0 30 -63 0 c-35 0
-66 2 -69 5 -3 3 -3 17 0 30 4 24 8 25 73 25 l69 0 0 30 0 30 -103 0 c-57 0
-107 -3 -110 -7z"/>
<path d="M3998 824 c-5 -4 -8 -74 -8 -156 l0 -148 35 0 35 0 0 56 c0 51 2 55
22 52 15 -2 33 -21 53 -55 28 -49 33 -53 68 -53 20 0 37 2 37 5 0 3 -16 31
-35 61 l-35 55 27 23 c39 34 39 95 0 134 -25 24 -36 27 -110 30 -45 2 -85 0
-89 -4z m146 -76 c17 -27 -5 -52 -48 -56 l-36 -3 0 41 0 41 36 -3 c22 -2 42
-10 48 -20z"/>
<path d="M4365 821 c-3 -5 -27 -67 -54 -138 -27 -70 -52 -136 -56 -145 -6 -15
-1 -18 33 -18 37 0 41 3 52 35 11 34 13 35 65 35 52 0 54 -1 65 -35 11 -32 15
-35 51 -35 l39 0 -46 128 c-25 70 -50 139 -56 155 -8 23 -16 27 -48 27 -22 0
-41 -4 -45 -9z m69 -147 c6 -18 2 -22 -24 -26 -17 -3 -33 -2 -35 2 -2 3 4 28
13 54 l17 47 11 -28 c6 -15 14 -38 18 -49z"/>
<path d="M4650 808 c-19 -13 -43 -39 -52 -58 -37 -73 -14 -164 52 -208 30 -20
45 -23 101 -20 87 5 99 15 99 89 0 72 -17 94 -68 85 -46 -7 -49 -12 -25 -39
11 -12 19 -33 19 -47 -1 -19 -7 -26 -28 -28 -62 -7 -109 59 -88 124 20 58 76
78 141 50 12 -5 18 0 23 20 10 38 -5 47 -77 52 -52 3 -67 0 -97 -20z"/>
</g>
</svg>
